<svg xmlns="http://www.w3.org/2000/svg" viewBox="0 0 134.16 72.9"><defs><style>.cls-1{fill:#0d140e;}.cls-2,.cls-4{font-size:20px;}.cls-2{font-family:AktivGroteskCorp-Bold, Aktiv Grotesk Corp;font-weight:700;letter-spacing:0.05em;}.cls-3{letter-spacing:-0.04em;}.cls-4{font-family:AktivGroteskCorp-Light, Aktiv Grotesk Corp;font-weight:300;letter-spacing:0.05em;}.cls-5{letter-spacing:0.06em;}.cls-6{letter-spacing:0.04em;}</style></defs><g id="Слой_2" data-name="Слой 2"><g id="Слой_2-2" data-name="Слой 2"><path class="cls-1" d="M28.86,51.72a11.34,11.34,0,0,1-7.31-5.87c-.32-.7-2.2-4.93,0-8.74a8.24,8.24,0,0,1,3.79-3.39c1.66-.69,2.49-.29,7.56-.52,3.31-.16,3.78-.36,4.18-.66,1.15-.84,1-1.84,2.47-5.47,1-2.63,1.57-3.95,2.48-4.44,1.22-.65,2.73-.26,5.74.52,1.57.41,5.6.76,6.43,1.08,21-4.4,39.12-10.37,59.76-16.53,1.84,1.31,3.51,2.63,5.36,3.94l4.85,0c-.31-1.31-1.75-2.09-2.06-3.39-1.81-1.59-2.49-3.7-4.29-5.29C110,3.92,107.27,6,106.59,7.11c-.13.2.06.42-1,.19-1.6-.32-2.19.8-2.6.85-7.34,2.29-43.47,13.33-48.19,12.7-.61-.08-1.78.5-2.42-.68-.28-.5-.29-1.05.09-3,.68-3.44,1.14-3.89.89-4.9-.45-1.77-2.46-2.67-2.94-2.88-.74-.33-3.24-1.28-8.12.93-6,2.69-5.29,5.48-9.29,7-4.24,1.6-5.87-1.2-16.37-2-4.93-.36-7.45-.51-9.92.84C1.56,19,.41,25.7.21,26.87c-1.63,9.44,6.46,20.61,19.84,28.56Z"/><circle class="cls-1" cx="106.82" cy="4.04" r="1.47"/><circle class="cls-1" cx="110.66" cy="2.58" r="1.47"/><circle class="cls-1" cx="114.49" cy="1.47" r="1.47"/><text class="cls-2" transform="translate(29.33 50.14) scale(1.02 1)">GUI<tspan class="cls-3" x="37.34" y="0">T</tspan><tspan x="48.86" y="0">AR</tspan></text><text class="cls-4" transform="translate(45.24 68.54)">S<tspan class="cls-5" x="13.92" y="0">CHOO</tspan><tspan class="cls-6" x="77.08" y="0">L</tspan></text></g></g></svg>